<svg data-reactroot="" style="user-select: none; display: block; font-family: arial; height: 150px; width: 1250px;"><style>
          .force-bar-axis path {
            fill: none;
            opacity: 0.4;
          }
          .force-bar-axis paths {
            display: none;
          }
          .tick line {
            stroke: #000;
            stroke-width: 1px;
            opacity: 0.4;
          }
          .tick text {
            fill: #000;
            opacity: 0.5;
            font-size: 12px;
            padding: 0px;
          }</style><g><g transform="translate(0,50)" class="force-bar-axis" fill="none" font-size="10" font-family="sans-serif" text-anchor="middle"><path class="domain" stroke="#000" d="M0.5,0V0.5H1250.5V0"></path><g class="tick" opacity="1" transform="translate(113.60379219638897,0)"><line stroke="#000" y2="4" x1="0.5" x2="0.5"></line><text fill="#000" y="-14" x="0.5" dy="0.71em">-4.333</text></g><g class="tick" opacity="1" transform="translate(241.45284414729173,0)"><line stroke="#000" y2="4" x1="0.5" x2="0.5"></line><text fill="#000" y="-14" x="0.5" dy="0.71em">-3.333</text></g><g class="tick" opacity="1" transform="translate(369.30189609819445,0)"><line stroke="#000" y2="4" x1="0.5" x2="0.5"></line><text fill="#000" y="-14" x="0.5" dy="0.71em">-2.333</text></g><g class="tick" opacity="1" transform="translate(497.1509480490972,0)"><line stroke="#000" y2="4" x1="0.5" x2="0.5"></line><text fill="#000" y="-14" x="0.5" dy="0.71em">-1.333</text></g><g class="tick" opacity="1" transform="translate(625,0)"><line stroke="#000" y2="4" x1="0.5" x2="0.5"></line><text fill="#000" y="-14" x="0.5" dy="0.71em">-0.333</text></g><g class="tick" opacity="1" transform="translate(752.8490519509028,0)"><line stroke="#000" y2="4" x1="0.5" x2="0.5"></line><text fill="#000" y="-14" x="0.5" dy="0.71em">0.667</text></g><g class="tick" opacity="1" transform="translate(880.6981039018056,0)"><line stroke="#000" y2="4" x1="0.5" x2="0.5"></line><text fill="#000" y="-14" x="0.5" dy="0.71em">1.667</text></g><g class="tick" opacity="1" transform="translate(1008.5471558527083,0)"><line stroke="#000" y2="4" x1="0.5" x2="0.5"></line><text fill="#000" y="-14" x="0.5" dy="0.71em">2.667</text></g><g class="tick" opacity="1" transform="translate(1136.396207803611,0)"><line stroke="#000" y2="4" x1="0.5" x2="0.5"></line><text fill="#000" y="-14" x="0.5" dy="0.71em">3.667</text></g></g><path class="force-bar-blocks" d="M484.8093430846163,56L495.25556853428606,56L499.25556853428606,64.5L495.25556853428606,73L484.8093430846163,73L488.8093430846163,64.5" fill="rgb(232, 10, 137)"></path><path class="force-bar-blocks" d="M495.25556853428606,56L510.81999098350013,56L514.8199909835001,64.5L510.81999098350013,73L495.25556853428606,73L499.25556853428606,64.5" fill="rgb(232, 10, 137)"></path><path class="force-bar-blocks" d="M510.8199909835002,56L551.4845991202315,56L555.4845991202315,64.5L551.4845991202315,73L510.8199909835002,73L514.8199909835002,64.5" fill="rgb(232, 10, 137)"></path><path class="force-bar-blocks" d="M551.4845991202313,56L596.6541346832208,56L600.6541346832208,64.5L596.6541346832208,73L551.4845991202313,73L555.4845991202313,64.5" fill="rgb(232, 10, 137)"></path><path class="force-bar-blocks" d="M596.6541346832208,56L663.143084387351,56L667.143084387351,64.5L663.143084387351,73L596.6541346832208,73L600.6541346832208,64.5" fill="rgb(232, 10, 137)"></path><path class="force-bar-blocks" d="M663.1430843873511,56L745.2535971374978,56L749.2535971374978,64.5L745.2535971374978,73L663.1430843873511,73L667.1430843873511,64.5" fill="rgb(232, 10, 137)"></path><path class="force-bar-blocks" d="M745.2535971374978,56L901.476009751283,56L901.476009751283,64.5L901.476009751283,73L745.2535971374978,73L749.2535971374978,64.5" fill="rgb(232, 10, 137)"></path><path class="force-bar-blocks" d="M901.4760097512828,56L954.4275560271748,56L950.4275560271748,64.5L954.4275560271748,73L901.4760097512828,73L901.4760097512828,64.5" fill="rgb(102, 170, 0)"></path><path class="force-bar-blocks" d="M954.4275560271749,56L984.42788485494,56L980.42788485494,64.5L984.42788485494,73L954.4275560271749,73L950.4275560271749,64.5" fill="rgb(102, 170, 0)"></path><path class="force-bar-blocks" d="M984.4278848549399,56L1007.0293489269768,56L1003.0293489269768,64.5L1007.0293489269768,73L984.4278848549399,73L980.4278848549399,64.5" fill="rgb(102, 170, 0)"></path><path class="force-bar-blocks" d="M1007.0293489269768,56L1024.4668355099814,56L1020.4668355099814,64.5L1024.4668355099814,73L1007.0293489269768,73L1003.0293489269768,64.5" fill="rgb(102, 170, 0)"></path><path class="force-bar-blocks" d="M1024.4668355099814,56L1035.457172569551,56L1031.457172569551,64.5L1035.457172569551,73L1024.4668355099814,73L1020.4668355099814,64.5" fill="rgb(102, 170, 0)"></path><path class="force-bar-blocks" d="M1035.457172569551,56L1041.6666666666665,56L1037.6666666666665,64.5L1041.6666666666665,73L1035.457172569551,73L1031.457172569551,64.5" fill="rgb(102, 170, 0)"></path><path class="force-bar-labelBacking" stroke="none" opacity="0.2" d="M510.8199909835002,73L365.89031588749765,83L365.89031588749765,104L277.49773776249765,104L277.49773776249765,83L495.25556853428606,73" fill="url(#linear-backgrad-0)"></path><path class="force-bar-labelBacking" stroke="none" opacity="0.2" d="M551.4845991202313,73L448.9274252624977,83L448.9274252624977,104L365.8903158874977,104L365.8903158874977,83L510.8199909835002,73" fill="url(#linear-backgrad-0)"></path><path class="force-bar-labelBacking" stroke="none" opacity="0.2" d="M596.654134683221,73L526.6442221374976,83L526.6442221374976,104L448.9274252624977,104L448.9274252624977,83L551.4845991202313,73" fill="url(#linear-backgrad-0)"></path><path class="force-bar-labelBacking" stroke="none" opacity="0.2" d="M663.1430843873511,73L631.0563315124978,83L631.0563315124978,104L526.6442221374978,104L526.6442221374978,83L596.6541346832208,73" fill="url(#linear-backgrad-0)"></path><path class="force-bar-labelBacking" stroke="none" opacity="0.2" d="M745.2535971374978,73L745.2535971374976,83L745.2535971374976,104L631.0563315124976,104L631.0563315124976,83L663.1430843873511,73" fill="url(#linear-backgrad-0)"></path><path class="force-bar-labelBacking" stroke="none" opacity="0.2" d="M901.4760097512831,73L901.4760097512828,83L901.4760097512828,104L745.2535971374978,104L745.2535971374978,83L745.2535971374978,73" fill="url(#linear-backgrad-0)"></path><path class="force-bar-labelBacking" stroke="none" opacity="0.2" d="M954.4275560271749,73L983.1771816262831,83L983.1771816262831,104L901.4760097512831,104L901.4760097512831,83L901.4760097512828,73" fill="url(#linear-backgrad-1)"></path><path class="force-bar-labelBacking" stroke="none" opacity="0.2" d="M984.4278848549399,73L1087.595150376283,83L1087.595150376283,104L983.177181626283,104L983.177181626283,83L954.4275560271749,73" fill="url(#linear-backgrad-1)"></path><path class="force-bar-labelBacking" stroke="none" opacity="0.2" d="M1007.0293489269768,73L1197.983822251283,83L1197.983822251283,104L1087.595150376283,104L1087.595150376283,83L984.4278848549399,73" fill="url(#linear-backgrad-1)"></path><path class="force-bar-labelBacking" stroke="none" opacity="0.2" d="M1024.4668355099814,73L1303.479916001283,83L1303.479916001283,104L1197.983822251283,104L1197.983822251283,83L1007.0293489269768,73" fill="url(#linear-backgrad-1)"></path><rect class="force-bar-labelDividers" height="21px" width="1px" y="83" x="365.39031588749765" fill="url(#linear-grad-0)"></rect><rect class="force-bar-labelDividers" height="21px" width="1px" y="83" x="448.4274252624977" fill="url(#linear-grad-0)"></rect><rect class="force-bar-labelDividers" height="21px" width="1px" y="83" x="526.1442221374976" fill="url(#linear-grad-0)"></rect><rect class="force-bar-labelDividers" height="21px" width="1px" y="83" x="630.5563315124978" fill="url(#linear-grad-0)"></rect><rect class="force-bar-labelDividers" height="21px" width="1px" y="83" x="744.7535971374976" fill="url(#linear-grad-0)"></rect><rect class="force-bar-labelDividers" height="21px" width="1px" y="83" x="900.9760097512828" fill="url(#linear-grad-0)"></rect><rect class="force-bar-labelDividers" height="21px" width="1px" y="83" x="982.6771816262831" fill="url(#linear-grad-1)"></rect><rect class="force-bar-labelDividers" height="21px" width="1px" y="83" x="1087.095150376283" fill="url(#linear-grad-1)"></rect><rect class="force-bar-labelDividers" height="21px" width="1px" y="83" x="1197.483822251283" fill="url(#linear-grad-1)"></rect><line class="force-bar-labelLinks" y1="73" y2="83" stroke-opacity="0.5" stroke-width="1" x1="510.8199909835002" x2="365.89031588749765" stroke="rgb(232, 10, 137)"></line><line class="force-bar-labelLinks" y1="73" y2="83" stroke-opacity="0.5" stroke-width="1" x1="551.4845991202313" x2="448.9274252624977" stroke="rgb(232, 10, 137)"></line><line class="force-bar-labelLinks" y1="73" y2="83" stroke-opacity="0.5" stroke-width="1" x1="596.654134683221" x2="526.6442221374976" stroke="rgb(232, 10, 137)"></line><line class="force-bar-labelLinks" y1="73" y2="83" stroke-opacity="0.5" stroke-width="1" x1="663.1430843873511" x2="631.0563315124978" stroke="rgb(232, 10, 137)"></line><line class="force-bar-labelLinks" y1="73" y2="83" stroke-opacity="0.5" stroke-width="1" x1="745.2535971374978" x2="745.2535971374976" stroke="rgb(232, 10, 137)"></line><line class="force-bar-labelLinks" y1="73" y2="83" stroke-opacity="0.5" stroke-width="1" x1="901.4760097512831" x2="901.4760097512828" stroke="rgb(232, 10, 137)"></line><line class="force-bar-labelLinks" y1="73" y2="83" stroke-opacity="0.5" stroke-width="1" x1="954.4275560271749" x2="983.1771816262831" stroke="rgb(102, 170, 0)"></line><line class="force-bar-labelLinks" y1="73" y2="83" stroke-opacity="0.5" stroke-width="1" x1="984.4278848549399" x2="1087.595150376283" stroke="rgb(102, 170, 0)"></line><line class="force-bar-labelLinks" y1="73" y2="83" stroke-opacity="0.5" stroke-width="1" x1="1007.0293489269768" x2="1197.983822251283" stroke="rgb(102, 170, 0)"></line><path class="force-bar-blockDividers" stroke-width="2" fill="none" d="M495.25556853428606,56L499.25556853428606,64.5L495.25556853428606,73" stroke="rgb(251, 155, 210)"></path><path class="force-bar-blockDividers" stroke-width="2" fill="none" d="M510.8199909835002,56L514.8199909835002,64.5L510.8199909835002,73" stroke="rgb(251, 155, 210)"></path><path class="force-bar-blockDividers" stroke-width="2" fill="none" d="M551.4845991202313,56L555.4845991202313,64.5L551.4845991202313,73" stroke="rgb(251, 155, 210)"></path><path class="force-bar-blockDividers" stroke-width="2" fill="none" d="M596.654134683221,56L600.654134683221,64.5L596.654134683221,73" stroke="rgb(251, 155, 210)"></path><path class="force-bar-blockDividers" stroke-width="2" fill="none" d="M663.1430843873511,56L667.1430843873511,64.5L663.1430843873511,73" stroke="rgb(251, 155, 210)"></path><path class="force-bar-blockDividers" stroke-width="2" fill="none" d="M745.2535971374978,56L749.2535971374978,64.5L745.2535971374978,73" stroke="rgb(251, 155, 210)"></path><path class="force-bar-blockDividers" stroke-width="2" fill="none" d="M901.4760097512831,56L905.4760097512831,64.5L901.4760097512831,73" stroke="#rgba(0,0,0,0)"></path><path class="force-bar-blockDividers" stroke-width="2" fill="none" d="M954.4275560271749,56L950.4275560271749,64.5L954.4275560271749,73" stroke="rgb(171, 255, 46)"></path><path class="force-bar-blockDividers" stroke-width="2" fill="none" d="M984.4278848549399,56L980.4278848549399,64.5L984.4278848549399,73" stroke="rgb(171, 255, 46)"></path><path class="force-bar-blockDividers" stroke-width="2" fill="none" d="M1007.0293489269768,56L1003.0293489269768,64.5L1007.0293489269768,73" stroke="rgb(171, 255, 46)"></path><path class="force-bar-blockDividers" stroke-width="2" fill="none" d="M1024.4668355099814,56L1020.4668355099814,64.5L1024.4668355099814,73" stroke="rgb(171, 255, 46)"></path><path class="force-bar-blockDividers" stroke-width="2" fill="none" d="M1035.457172569551,56L1031.457172569551,64.5L1035.457172569551,73" stroke="rgb(171, 255, 46)"></path></g><g><text class="force-bar-labels" font-size="12px" y="98" fill="rgb(232, 10, 137)" stroke="none" x="321.69402682499765" text-anchor="middle">close = 0.4261</text><text class="force-bar-labels" font-size="12px" y="98" fill="rgb(232, 10, 137)" stroke="none" x="407.4088705749977" text-anchor="middle">growthAC = 0</text><text class="force-bar-labels" font-size="12px" y="98" fill="rgb(232, 10, 137)" stroke="none" x="487.78582369999765" text-anchor="middle">Kcat = 1.004</text><text class="force-bar-labels" font-size="12px" y="98" fill="rgb(232, 10, 137)" stroke="none" x="578.8502768249978" text-anchor="middle">geneKO = 0.9739</text><text class="force-bar-labels" font-size="12px" y="98" fill="rgb(232, 10, 137)" stroke="none" x="688.1549643249976" text-anchor="middle">pageRank = 0.1194</text><text class="force-bar-labels" font-size="12px" y="98" fill="rgb(232, 10, 137)" stroke="none" x="823.3648034443902" text-anchor="middle">PFBA = 17.84</text><text class="force-bar-labels" font-size="12px" y="98" fill="rgb(102, 170, 0)" stroke="none" x="942.3265956887831" text-anchor="middle">MW = 0.3829</text><text class="force-bar-labels" font-size="12px" y="98" fill="rgb(102, 170, 0)" stroke="none" x="1035.386166001283" text-anchor="middle">degree = 0.03772</text><text class="force-bar-labels" font-size="12px" y="98" fill="rgb(102, 170, 0)" stroke="none" x="1142.789486313783" text-anchor="middle">rawVmax = 0.6297</text><text class="force-bar-labels" font-size="12px" y="98" fill="rgb(102, 170, 0)" stroke="none" x="1250.731869126283" text-anchor="middle">maxATP = 0.9818</text></g><text x="625" y="28" text-anchor="middle" font-size="12" fill="#000" opacity="0.5">base value</text><line x1="901.4760097512828" x2="901.4760097512828" y1="50" y2="56" stroke="#F2F2F2" stroke-width="1" opacity="1"></line><text x="901.4760097512828" y="45" color="#fff" text-anchor="middle" font-weight="bold" stroke="#fff" stroke-width="6" opacity="1">1.83</text><text x="901.4760097512828" y="45" text-anchor="middle" font-weight="bold" fill="#000" opacity="1">1.83</text><text x="885.4760097512828" y="12" text-anchor="end" font-size="13" fill="rgb(232, 10, 137)" opacity="1">higher</text><text x="908.4760097512828" y="8" text-anchor="end" font-size="13" fill="rgb(232, 10, 137)" opacity="1">→</text><text x="901.4760097512828" y="28" text-anchor="middle" font-size="12" fill="#000" opacity="0.5">f(x)</text><text x="894.4760097512828" y="14" text-anchor="start" font-size="13" fill="rgb(102, 170, 0)" opacity="1">←</text><text x="917.4760097512828" y="12" text-anchor="start" font-size="13" fill="rgb(102, 170, 0)" opacity="1">lower</text><text x="10" y="20" text-anchor="middle" font-size="12" stroke="#fff" fill="#fff" stroke-width="4" stroke-linejoin="round"></text><text x="10" y="20" text-anchor="middle" font-size="12" fill="#0f0"></text><linearGradient id="linear-grad-0" x1="0%" y1="0%" x2="0%" y2="100%"><stop offset="0%" stop-color="rgb(232, 10, 137)" stop-opacity="0.6"></stop><stop offset="100%" stop-color="rgb(232, 10, 137)" stop-opacity="0"></stop></linearGradient><linearGradient id="linear-backgrad-0" x1="0%" y1="0%" x2="0%" y2="100%"><stop offset="0%" stop-color="rgb(232, 10, 137)" stop-opacity="0.5"></stop><stop offset="100%" stop-color="rgb(232, 10, 137)" stop-opacity="0"></stop></linearGradient><linearGradient id="linear-grad-1" x1="0%" y1="0%" x2="0%" y2="100%"><stop offset="0%" stop-color="rgb(102, 170, 0)" stop-opacity="0.6"></stop><stop offset="100%" stop-color="rgb(102, 170, 0)" stop-opacity="0"></stop></linearGradient><linearGradient id="linear-backgrad-1" x1="0%" y1="0%" x2="0%" y2="100%"><stop offset="0%" stop-color="rgb(102, 170, 0)" stop-opacity="0.5"></stop><stop offset="100%" stop-color="rgb(102, 170, 0)" stop-opacity="0"></stop></linearGradient></svg>