<svg data-reactroot="" style="user-select: none; display: block; font-family: arial; height: 150px; width: 1250px;"><style>
          .force-bar-axis path {
            fill: none;
            opacity: 0.4;
          }
          .force-bar-axis paths {
            display: none;
          }
          .tick line {
            stroke: #000;
            stroke-width: 1px;
            opacity: 0.4;
          }
          .tick text {
            fill: #000;
            opacity: 0.5;
            font-size: 12px;
            padding: 0px;
          }</style><g><g transform="translate(0,50)" class="force-bar-axis" fill="none" font-size="10" font-family="sans-serif" text-anchor="middle"><path class="domain" stroke="#000" d="M0.5,0V0.5H1250.5V0"></path><g class="tick" opacity="1" transform="translate(133.21066345339514,0)"><line stroke="#000" y2="4" x1="0.5" x2="0.5"></line><text fill="#000" y="-14" x="0.5" dy="0.71em">-4.079</text></g><g class="tick" opacity="1" transform="translate(297.1404423022634,0)"><line stroke="#000" y2="4" x1="0.5" x2="0.5"></line><text fill="#000" y="-14" x="0.5" dy="0.71em">-3.079</text></g><g class="tick" opacity="1" transform="translate(461.07022115113176,0)"><line stroke="#000" y2="4" x1="0.5" x2="0.5"></line><text fill="#000" y="-14" x="0.5" dy="0.71em">-2.079</text></g><g class="tick" opacity="1" transform="translate(625,0)"><line stroke="#000" y2="4" x1="0.5" x2="0.5"></line><text fill="#000" y="-14" x="0.5" dy="0.71em">-1.079</text></g><g class="tick" opacity="1" transform="translate(788.9297788488683,0)"><line stroke="#000" y2="4" x1="0.5" x2="0.5"></line><text fill="#000" y="-14" x="0.5" dy="0.71em">-0.07867</text></g><g class="tick" opacity="1" transform="translate(952.8595576977365,0)"><line stroke="#000" y2="4" x1="0.5" x2="0.5"></line><text fill="#000" y="-14" x="0.5" dy="0.71em">0.9213</text></g><g class="tick" opacity="1" transform="translate(1116.7893365466048,0)"><line stroke="#000" y2="4" x1="0.5" x2="0.5"></line><text fill="#000" y="-14" x="0.5" dy="0.71em">1.921</text></g></g><path class="force-bar-blocks" d="M568.2730956681941,56L572.8595632113153,56L576.8595632113153,64.5L572.8595632113153,73L568.2730956681941,73L572.2730956681941,64.5" fill="rgb(232, 10, 137)"></path><path class="force-bar-blocks" d="M572.8595632113153,56L581.3843442530325,56L585.3843442530325,64.5L581.3843442530325,73L572.8595632113153,73L576.8595632113153,64.5" fill="rgb(232, 10, 137)"></path><path class="force-bar-blocks" d="M581.3843442530324,56L628.379393390732,56L632.379393390732,64.5L628.379393390732,73L581.3843442530324,73L585.3843442530324,64.5" fill="rgb(232, 10, 137)"></path><path class="force-bar-blocks" d="M628.379393390732,56L678.9574448578535,56L682.9574448578535,64.5L678.9574448578535,73L628.379393390732,73L632.379393390732,64.5" fill="rgb(232, 10, 137)"></path><path class="force-bar-blocks" d="M678.9574448578535,56L754.1799551836611,56L758.1799551836611,64.5L754.1799551836611,73L678.9574448578535,73L682.9574448578535,64.5" fill="rgb(232, 10, 137)"></path><path class="force-bar-blocks" d="M754.1799551836611,56L867.4297224283813,56L871.4297224283813,64.5L867.4297224283813,73L754.1799551836611,73L758.1799551836611,64.5" fill="rgb(232, 10, 137)"></path><path class="force-bar-blocks" d="M867.4297224283812,56L984.9397623348607,56L984.9397623348607,64.5L984.9397623348607,73L867.4297224283812,73L871.4297224283812,64.5" fill="rgb(232, 10, 137)"></path><path class="force-bar-blocks" d="M984.9397623348607,56L1011.0094206728756,56L1007.0094206728756,64.5L1011.0094206728756,73L984.9397623348607,73L984.9397623348607,64.5" fill="rgb(102, 170, 0)"></path><path class="force-bar-blocks" d="M1011.0094206728756,56L1029.4631648657542,56L1025.4631648657542,64.5L1029.4631648657542,73L1011.0094206728756,73L1007.0094206728756,64.5" fill="rgb(102, 170, 0)"></path><path class="force-bar-blocks" d="M1029.4631648657544,56L1035.1406150353523,56L1031.1406150353523,64.5L1035.1406150353523,73L1029.4631648657544,73L1025.4631648657544,64.5" fill="rgb(102, 170, 0)"></path><path class="force-bar-blocks" d="M1035.1406150353523,56L1040.3927688077968,56L1036.3927688077968,64.5L1040.3927688077968,73L1035.1406150353523,73L1031.1406150353523,64.5" fill="rgb(102, 170, 0)"></path><path class="force-bar-blocks" d="M1040.392768807797,56L1041.4737074813888,56L1037.4737074813888,64.5L1041.4737074813888,73L1040.392768807797,73L1036.392768807797,64.5" fill="rgb(102, 170, 0)"></path><path class="force-bar-blocks" d="M1041.4737074813886,56L1041.6666666666665,56L1037.6666666666665,64.5L1041.6666666666665,73L1041.4737074813886,73L1037.4737074813886,64.5" fill="rgb(102, 170, 0)"></path><path class="force-bar-labelBacking" stroke="none" opacity="0.2" d="M628.379393390732,73L571.9027573578535,83L571.9027573578535,104L456.81486673285343,104L456.81486673285343,83L581.3843442530324,73" fill="url(#linear-backgrad-0)"></path><path class="force-bar-labelBacking" stroke="none" opacity="0.2" d="M678.9574448578535,73L678.9574448578535,83L678.9574448578535,104L571.9027573578535,104L571.9027573578535,83L628.379393390732,73" fill="url(#linear-backgrad-0)"></path><path class="force-bar-labelBacking" stroke="none" opacity="0.2" d="M754.1799551836611,73L754.1799551836611,83L754.1799551836611,104L678.9574448578535,104L678.9574448578535,83L678.9574448578535,73" fill="url(#linear-backgrad-0)"></path><path class="force-bar-labelBacking" stroke="none" opacity="0.2" d="M867.4297224283812,73L867.4297224283812,83L867.4297224283812,104L754.1799551836611,104L754.1799551836611,83L754.1799551836611,73" fill="url(#linear-backgrad-0)"></path><path class="force-bar-labelBacking" stroke="none" opacity="0.2" d="M984.9397623348607,73L984.9397623348607,83L984.9397623348607,104L867.4297224283812,104L867.4297224283812,83L867.4297224283812,73" fill="url(#linear-backgrad-0)"></path><path class="force-bar-labelBacking" stroke="none" opacity="0.2" d="M1011.0094206728756,73L1082.683902959861,83L1082.683902959861,104L984.9397623348608,104L984.9397623348608,83L984.9397623348607,73" fill="url(#linear-backgrad-1)"></path><path class="force-bar-labelBacking" stroke="none" opacity="0.2" d="M1029.4631648657544,73L1171.0764810848607,83L1171.0764810848607,104L1082.6839029598607,104L1082.6839029598607,83L1011.0094206728756,73" fill="url(#linear-backgrad-1)"></path><rect class="force-bar-labelDividers" height="21px" width="1px" y="83" x="571.4027573578535" fill="url(#linear-grad-0)"></rect><rect class="force-bar-labelDividers" height="21px" width="1px" y="83" x="678.4574448578535" fill="url(#linear-grad-0)"></rect><rect class="force-bar-labelDividers" height="21px" width="1px" y="83" x="753.6799551836611" fill="url(#linear-grad-0)"></rect><rect class="force-bar-labelDividers" height="21px" width="1px" y="83" x="866.9297224283812" fill="url(#linear-grad-0)"></rect><rect class="force-bar-labelDividers" height="21px" width="1px" y="83" x="984.4397623348607" fill="url(#linear-grad-0)"></rect><rect class="force-bar-labelDividers" height="21px" width="1px" y="83" x="1082.183902959861" fill="url(#linear-grad-1)"></rect><line class="force-bar-labelLinks" y1="73" y2="83" stroke-opacity="0.5" stroke-width="1" x1="628.379393390732" x2="571.9027573578535" stroke="rgb(232, 10, 137)"></line><line class="force-bar-labelLinks" y1="73" y2="83" stroke-opacity="0.5" stroke-width="1" x1="678.9574448578535" x2="678.9574448578535" stroke="rgb(232, 10, 137)"></line><line class="force-bar-labelLinks" y1="73" y2="83" stroke-opacity="0.5" stroke-width="1" x1="754.1799551836611" x2="754.1799551836611" stroke="rgb(232, 10, 137)"></line><line class="force-bar-labelLinks" y1="73" y2="83" stroke-opacity="0.5" stroke-width="1" x1="867.4297224283812" x2="867.4297224283812" stroke="rgb(232, 10, 137)"></line><line class="force-bar-labelLinks" y1="73" y2="83" stroke-opacity="0.5" stroke-width="1" x1="984.9397623348607" x2="984.9397623348607" stroke="rgb(232, 10, 137)"></line><line class="force-bar-labelLinks" y1="73" y2="83" stroke-opacity="0.5" stroke-width="1" x1="1011.0094206728756" x2="1082.683902959861" stroke="rgb(102, 170, 0)"></line><path class="force-bar-blockDividers" stroke-width="2" fill="none" d="M572.8595632113153,56L576.8595632113153,64.5L572.8595632113153,73" stroke="rgb(251, 155, 210)"></path><path class="force-bar-blockDividers" stroke-width="2" fill="none" d="M581.3843442530324,56L585.3843442530324,64.5L581.3843442530324,73" stroke="rgb(251, 155, 210)"></path><path class="force-bar-blockDividers" stroke-width="2" fill="none" d="M628.379393390732,56L632.379393390732,64.5L628.379393390732,73" stroke="rgb(251, 155, 210)"></path><path class="force-bar-blockDividers" stroke-width="2" fill="none" d="M678.9574448578535,56L682.9574448578535,64.5L678.9574448578535,73" stroke="rgb(251, 155, 210)"></path><path class="force-bar-blockDividers" stroke-width="2" fill="none" d="M754.1799551836611,56L758.1799551836611,64.5L754.1799551836611,73" stroke="rgb(251, 155, 210)"></path><path class="force-bar-blockDividers" stroke-width="2" fill="none" d="M867.4297224283812,56L871.4297224283812,64.5L867.4297224283812,73" stroke="rgb(251, 155, 210)"></path><path class="force-bar-blockDividers" stroke-width="2" fill="none" d="M984.9397623348607,56L988.9397623348607,64.5L984.9397623348607,73" stroke="#rgba(0,0,0,0)"></path><path class="force-bar-blockDividers" stroke-width="2" fill="none" d="M1011.0094206728756,56L1007.0094206728756,64.5L1011.0094206728756,73" stroke="rgb(171, 255, 46)"></path><path class="force-bar-blockDividers" stroke-width="2" fill="none" d="M1029.4631648657544,56L1025.4631648657544,64.5L1029.4631648657544,73" stroke="rgb(171, 255, 46)"></path><path class="force-bar-blockDividers" stroke-width="2" fill="none" d="M1035.1406150353523,56L1031.1406150353523,64.5L1035.1406150353523,73" stroke="rgb(171, 255, 46)"></path><path class="force-bar-blockDividers" stroke-width="2" fill="none" d="M1040.392768807797,56L1036.392768807797,64.5L1040.392768807797,73" stroke="rgb(171, 255, 46)"></path><path class="force-bar-blockDividers" stroke-width="2" fill="none" d="M1041.4737074813886,56L1037.4737074813886,64.5L1041.4737074813886,73" stroke="rgb(171, 255, 46)"></path></g><g><text class="force-bar-labels" font-size="12px" y="98" fill="rgb(232, 10, 137)" stroke="none" x="514.3588120453535" text-anchor="middle">pageRank = 0.4788</text><text class="force-bar-labels" font-size="12px" y="98" fill="rgb(232, 10, 137)" stroke="none" x="625.4301011078535" text-anchor="middle">rawVmin = 0.6799</text><text class="force-bar-labels" font-size="12px" y="98" fill="rgb(232, 10, 137)" stroke="none" x="716.5687000207573" text-anchor="middle">geneKO = 1</text><text class="force-bar-labels" font-size="12px" y="98" fill="rgb(232, 10, 137)" stroke="none" x="810.8048388060212" text-anchor="middle">rawVmax = 0.9091</text><text class="force-bar-labels" font-size="12px" y="98" fill="rgb(232, 10, 137)" stroke="none" x="926.1847423816209" text-anchor="middle">MW = 0.449</text><text class="force-bar-labels" font-size="12px" y="98" fill="rgb(102, 170, 0)" stroke="none" x="1033.811832647361" text-anchor="middle">degree = 0.6509</text><text class="force-bar-labels" font-size="12px" y="98" fill="rgb(102, 170, 0)" stroke="none" x="1126.8801920223607" text-anchor="middle">close = 0.8012</text></g><text x="625" y="28" text-anchor="middle" font-size="12" fill="#000" opacity="0.5">base value</text><line x1="984.9397623348607" x2="984.9397623348607" y1="50" y2="56" stroke="#F2F2F2" stroke-width="1" opacity="1"></line><text x="984.9397623348607" y="45" color="#fff" text-anchor="middle" font-weight="bold" stroke="#fff" stroke-width="6" opacity="1">1.12</text><text x="984.9397623348607" y="45" text-anchor="middle" font-weight="bold" fill="#000" opacity="1">1.12</text><text x="968.9397623348607" y="12" text-anchor="end" font-size="13" fill="rgb(232, 10, 137)" opacity="1">higher</text><text x="991.9397623348607" y="8" text-anchor="end" font-size="13" fill="rgb(232, 10, 137)" opacity="1">→</text><text x="984.9397623348607" y="28" text-anchor="middle" font-size="12" fill="#000" opacity="0.5">f(x)</text><text x="977.9397623348607" y="14" text-anchor="start" font-size="13" fill="rgb(102, 170, 0)" opacity="1">←</text><text x="1000.9397623348607" y="12" text-anchor="start" font-size="13" fill="rgb(102, 170, 0)" opacity="1">lower</text><text x="10" y="20" text-anchor="middle" font-size="12" stroke="#fff" fill="#fff" stroke-width="4" stroke-linejoin="round"></text><text x="10" y="20" text-anchor="middle" font-size="12" fill="#0f0"></text><linearGradient id="linear-grad-0" x1="0%" y1="0%" x2="0%" y2="100%"><stop offset="0%" stop-color="rgb(232, 10, 137)" stop-opacity="0.6"></stop><stop offset="100%" stop-color="rgb(232, 10, 137)" stop-opacity="0"></stop></linearGradient><linearGradient id="linear-backgrad-0" x1="0%" y1="0%" x2="0%" y2="100%"><stop offset="0%" stop-color="rgb(232, 10, 137)" stop-opacity="0.5"></stop><stop offset="100%" stop-color="rgb(232, 10, 137)" stop-opacity="0"></stop></linearGradient><linearGradient id="linear-grad-1" x1="0%" y1="0%" x2="0%" y2="100%"><stop offset="0%" stop-color="rgb(102, 170, 0)" stop-opacity="0.6"></stop><stop offset="100%" stop-color="rgb(102, 170, 0)" stop-opacity="0"></stop></linearGradient><linearGradient id="linear-backgrad-1" x1="0%" y1="0%" x2="0%" y2="100%"><stop offset="0%" stop-color="rgb(102, 170, 0)" stop-opacity="0.5"></stop><stop offset="100%" stop-color="rgb(102, 170, 0)" stop-opacity="0"></stop></linearGradient></svg>