<svg data-reactroot="" style="user-select: none; display: block; font-family: arial; height: 150px; width: 1264px;"><style>
          .force-bar-axis path {
            fill: none;
            opacity: 0.4;
          }
          .force-bar-axis paths {
            display: none;
          }
          .tick line {
            stroke: #000;
            stroke-width: 1px;
            opacity: 0.4;
          }
          .tick text {
            fill: #000;
            opacity: 0.5;
            font-size: 12px;
            padding: 0px;
          }</style><g><g transform="translate(0,50)" class="force-bar-axis" fill="none" font-size="10" font-family="sans-serif" text-anchor="middle"><path class="domain" stroke="#000" d="M0.5,0V0.5H1264.5V0"></path><g class="tick" opacity="1" transform="translate(62.72198071173427,0)"><line stroke="#000" y2="4" x1="0.5" x2="0.5"></line><text fill="#000" y="-14" x="0.5" dy="0.71em">-9.079</text></g><g class="tick" opacity="1" transform="translate(205.0414855338007,0)"><line stroke="#000" y2="4" x1="0.5" x2="0.5"></line><text fill="#000" y="-14" x="0.5" dy="0.71em">-7.079</text></g><g class="tick" opacity="1" transform="translate(347.3609903558671,0)"><line stroke="#000" y2="4" x1="0.5" x2="0.5"></line><text fill="#000" y="-14" x="0.5" dy="0.71em">-5.079</text></g><g class="tick" opacity="1" transform="translate(489.68049517793355,0)"><line stroke="#000" y2="4" x1="0.5" x2="0.5"></line><text fill="#000" y="-14" x="0.5" dy="0.71em">-3.079</text></g><g class="tick" opacity="1" transform="translate(632,0)"><line stroke="#000" y2="4" x1="0.5" x2="0.5"></line><text fill="#000" y="-14" x="0.5" dy="0.71em">-1.079</text></g><g class="tick" opacity="1" transform="translate(774.3195048220664,0)"><line stroke="#000" y2="4" x1="0.5" x2="0.5"></line><text fill="#000" y="-14" x="0.5" dy="0.71em">0.9213</text></g><g class="tick" opacity="1" transform="translate(916.6390096441329,0)"><line stroke="#000" y2="4" x1="0.5" x2="0.5"></line><text fill="#000" y="-14" x="0.5" dy="0.71em">2.921</text></g><g class="tick" opacity="1" transform="translate(1058.9585144661992,0)"><line stroke="#000" y2="4" x1="0.5" x2="0.5"></line><text fill="#000" y="-14" x="0.5" dy="0.71em">4.921</text></g><g class="tick" opacity="1" transform="translate(1201.2780192882658,0)"><line stroke="#000" y2="4" x1="0.5" x2="0.5"></line><text fill="#000" y="-14" x="0.5" dy="0.71em">6.921</text></g></g><path class="force-bar-blocks" d="M552.9219697302248,56L555.814826192581,56L559.814826192581,64.5L555.814826192581,73L552.9219697302248,73L556.9219697302248,64.5" fill="rgb(221, 68, 119)"></path><path class="force-bar-blocks" d="M555.814826192581,56L572.2055220824989,56L576.2055220824989,64.5L572.2055220824989,73L555.814826192581,73L559.814826192581,64.5" fill="rgb(221, 68, 119)"></path><path class="force-bar-blocks" d="M572.2055220824988,56L601.268910263489,56L605.268910263489,64.5L601.268910263489,73L572.2055220824988,73L576.2055220824988,64.5" fill="rgb(221, 68, 119)"></path><path class="force-bar-blocks" d="M601.268910263489,56L648.5849980213063,56L652.5849980213063,64.5L648.5849980213063,73L601.268910263489,73L605.268910263489,64.5" fill="rgb(221, 68, 119)"></path><path class="force-bar-blocks" d="M648.5849980213063,56L698.2055174203413,56L702.2055174203413,64.5L698.2055174203413,73L648.5849980213063,73L652.5849980213063,64.5" fill="rgb(221, 68, 119)"></path><path class="force-bar-blocks" d="M698.2055174203413,56L749.5926226866594,56L753.5926226866594,64.5L749.5926226866594,73L698.2055174203413,73L702.2055174203413,64.5" fill="rgb(221, 68, 119)"></path><path class="force-bar-blocks" d="M749.5926226866595,56L805.6107528208839,56L809.6107528208839,64.5L805.6107528208839,73L749.5926226866595,73L753.5926226866595,64.5" fill="rgb(221, 68, 119)"></path><path class="force-bar-blocks" d="M805.6107528208838,56L974.255303063558,56L974.255303063558,64.5L974.255303063558,73L805.6107528208838,73L809.6107528208838,64.5" fill="rgb(221, 68, 119)"></path><path class="force-bar-blocks" d="M974.2553030635581,56L1016.3376938307621,56L1012.3376938307621,64.5L1016.3376938307621,73L974.2553030635581,73L974.2553030635581,64.5" fill="rgb(102, 170, 0)"></path><path class="force-bar-blocks" d="M1016.337693830762,56L1047.382997902229,56L1043.382997902229,64.5L1047.382997902229,73L1016.337693830762,73L1012.337693830762,64.5" fill="rgb(102, 170, 0)"></path><path class="force-bar-blocks" d="M1047.3829979022291,56L1052.1837821053869,56L1048.1837821053869,64.5L1052.1837821053869,73L1047.3829979022291,73L1043.3829979022291,64.5" fill="rgb(102, 170, 0)"></path><path class="force-bar-blocks" d="M1052.1837821053869,56L1053.1285094192976,56L1049.1285094192976,64.5L1053.1285094192976,73L1052.1837821053869,73L1048.1837821053869,64.5" fill="rgb(102, 170, 0)"></path><path class="force-bar-blocks" d="M1053.1285094192974,56L1053.3333333333333,56L1049.3333333333333,64.5L1053.3333333333333,73L1053.1285094192974,73L1049.1285094192974,64.5" fill="rgb(102, 170, 0)"></path><path class="force-bar-labelBacking" stroke="none" opacity="0.2" d="M572.2055220824988,73L312.5482528208839,83L312.5482528208839,104L242.18497157088387,104L242.18497157088387,83L555.814826192581,73" fill="url(#linear-backgrad-0)"></path><path class="force-bar-labelBacking" stroke="none" opacity="0.2" d="M601.268910263489,73L416.9603621958839,83L416.9603621958839,104L312.5482528208839,104L312.5482528208839,83L572.2055220824988,73" fill="url(#linear-backgrad-0)"></path><path class="force-bar-labelBacking" stroke="none" opacity="0.2" d="M648.5849980213063,73L493.9857528208839,83L493.9857528208839,104L416.9603621958839,104L416.9603621958839,83L601.268910263489,73" fill="url(#linear-backgrad-0)"></path><path class="force-bar-labelBacking" stroke="none" opacity="0.2" d="M698.2055174203414,73L619.7552840708839,83L619.7552840708839,104L493.9857528208839,104L493.9857528208839,83L648.5849980213063,73" fill="url(#linear-backgrad-0)"></path><path class="force-bar-labelBacking" stroke="none" opacity="0.2" d="M749.5926226866595,73L725.2513778208839,83L725.2513778208839,104L619.7552840708839,104L619.7552840708839,83L698.2055174203413,73" fill="url(#linear-backgrad-0)"></path><path class="force-bar-labelBacking" stroke="none" opacity="0.2" d="M805.6107528208838,73L805.6107528208839,83L805.6107528208839,104L725.2513778208839,104L725.2513778208839,83L749.5926226866595,73" fill="url(#linear-backgrad-0)"></path><path class="force-bar-labelBacking" stroke="none" opacity="0.2" d="M974.2553030635581,73L974.2553030635581,83L974.2553030635581,104L805.6107528208839,104L805.6107528208839,83L805.6107528208838,73" fill="url(#linear-backgrad-0)"></path><path class="force-bar-labelBacking" stroke="none" opacity="0.2" d="M1016.337693830762,73L1071.9994436885581,83L1071.9994436885581,104L974.2553030635581,104L974.2553030635581,83L974.2553030635581,73" fill="url(#linear-backgrad-1)"></path><path class="force-bar-labelBacking" stroke="none" opacity="0.2" d="M1047.382997902229,73L1187.0873343135581,83L1187.0873343135581,104L1071.9994436885581,104L1071.9994436885581,83L1016.337693830762,73" fill="url(#linear-backgrad-1)"></path><rect class="force-bar-labelDividers" height="21px" width="1px" y="83" x="312.0482528208839" fill="url(#linear-grad-0)"></rect><rect class="force-bar-labelDividers" height="21px" width="1px" y="83" x="416.4603621958839" fill="url(#linear-grad-0)"></rect><rect class="force-bar-labelDividers" height="21px" width="1px" y="83" x="493.4857528208839" fill="url(#linear-grad-0)"></rect><rect class="force-bar-labelDividers" height="21px" width="1px" y="83" x="619.2552840708839" fill="url(#linear-grad-0)"></rect><rect class="force-bar-labelDividers" height="21px" width="1px" y="83" x="724.7513778208839" fill="url(#linear-grad-0)"></rect><rect class="force-bar-labelDividers" height="21px" width="1px" y="83" x="805.1107528208839" fill="url(#linear-grad-0)"></rect><rect class="force-bar-labelDividers" height="21px" width="1px" y="83" x="973.7553030635581" fill="url(#linear-grad-0)"></rect><rect class="force-bar-labelDividers" height="21px" width="1px" y="83" x="1071.4994436885581" fill="url(#linear-grad-1)"></rect><line class="force-bar-labelLinks" y1="73" y2="83" stroke-opacity="0.5" stroke-width="1" x1="572.2055220824988" x2="312.5482528208839" stroke="rgb(221, 68, 119)"></line><line class="force-bar-labelLinks" y1="73" y2="83" stroke-opacity="0.5" stroke-width="1" x1="601.268910263489" x2="416.9603621958839" stroke="rgb(221, 68, 119)"></line><line class="force-bar-labelLinks" y1="73" y2="83" stroke-opacity="0.5" stroke-width="1" x1="648.5849980213063" x2="493.9857528208839" stroke="rgb(221, 68, 119)"></line><line class="force-bar-labelLinks" y1="73" y2="83" stroke-opacity="0.5" stroke-width="1" x1="698.2055174203414" x2="619.7552840708839" stroke="rgb(221, 68, 119)"></line><line class="force-bar-labelLinks" y1="73" y2="83" stroke-opacity="0.5" stroke-width="1" x1="749.5926226866595" x2="725.2513778208839" stroke="rgb(221, 68, 119)"></line><line class="force-bar-labelLinks" y1="73" y2="83" stroke-opacity="0.5" stroke-width="1" x1="805.6107528208838" x2="805.6107528208839" stroke="rgb(221, 68, 119)"></line><line class="force-bar-labelLinks" y1="73" y2="83" stroke-opacity="0.5" stroke-width="1" x1="974.2553030635581" x2="974.2553030635581" stroke="rgb(221, 68, 119)"></line><line class="force-bar-labelLinks" y1="73" y2="83" stroke-opacity="0.5" stroke-width="1" x1="1016.337693830762" x2="1071.9994436885581" stroke="rgb(102, 170, 0)"></line><path class="force-bar-blockDividers" stroke-width="2" fill="none" d="M555.814826192581,56L559.814826192581,64.5L555.814826192581,73" stroke="rgb(251, 234, 239)"></path><path class="force-bar-blockDividers" stroke-width="2" fill="none" d="M572.2055220824988,56L576.2055220824988,64.5L572.2055220824988,73" stroke="rgb(251, 234, 239)"></path><path class="force-bar-blockDividers" stroke-width="2" fill="none" d="M601.268910263489,56L605.268910263489,64.5L601.268910263489,73" stroke="rgb(251, 234, 239)"></path><path class="force-bar-blockDividers" stroke-width="2" fill="none" d="M648.5849980213063,56L652.5849980213063,64.5L648.5849980213063,73" stroke="rgb(251, 234, 239)"></path><path class="force-bar-blockDividers" stroke-width="2" fill="none" d="M698.2055174203414,56L702.2055174203414,64.5L698.2055174203414,73" stroke="rgb(251, 234, 239)"></path><path class="force-bar-blockDividers" stroke-width="2" fill="none" d="M749.5926226866595,56L753.5926226866595,64.5L749.5926226866595,73" stroke="rgb(251, 234, 239)"></path><path class="force-bar-blockDividers" stroke-width="2" fill="none" d="M805.6107528208838,56L809.6107528208838,64.5L805.6107528208838,73" stroke="rgb(251, 234, 239)"></path><path class="force-bar-blockDividers" stroke-width="2" fill="none" d="M974.2553030635581,56L978.2553030635581,64.5L974.2553030635581,73" stroke="#rgba(0,0,0,0)"></path><path class="force-bar-blockDividers" stroke-width="2" fill="none" d="M1016.337693830762,56L1012.337693830762,64.5L1016.337693830762,73" stroke="rgb(171, 255, 46)"></path><path class="force-bar-blockDividers" stroke-width="2" fill="none" d="M1047.382997902229,56L1043.382997902229,64.5L1047.382997902229,73" stroke="rgb(171, 255, 46)"></path><path class="force-bar-blockDividers" stroke-width="2" fill="none" d="M1052.1837821053869,56L1048.1837821053869,64.5L1052.1837821053869,73" stroke="rgb(171, 255, 46)"></path><path class="force-bar-blockDividers" stroke-width="2" fill="none" d="M1053.1285094192974,56L1049.1285094192974,64.5L1053.1285094192974,73" stroke="rgb(171, 255, 46)"></path></g><g><text class="force-bar-labels" font-size="12px" y="98" fill="rgb(221, 68, 119)" stroke="none" x="277.3666121958839" text-anchor="middle">reverse = 0</text><text class="force-bar-labels" font-size="12px" y="98" fill="rgb(221, 68, 119)" stroke="none" x="364.7543075083839" text-anchor="middle">geneKO = 0.9587</text><text class="force-bar-labels" font-size="12px" y="98" fill="rgb(221, 68, 119)" stroke="none" x="455.4730575083839" text-anchor="middle">rawVmin = 0</text><text class="force-bar-labels" font-size="12px" y="98" fill="rgb(221, 68, 119)" stroke="none" x="556.8705184458839" text-anchor="middle">between = 0.0006136</text><text class="force-bar-labels" font-size="12px" y="98" fill="rgb(221, 68, 119)" stroke="none" x="672.5033309458839" text-anchor="middle">maxATP = 0.9593</text><text class="force-bar-labels" font-size="12px" y="98" fill="rgb(221, 68, 119)" stroke="none" x="765.4310653208839" text-anchor="middle">rawVmax = 1</text><text class="force-bar-labels" font-size="12px" y="98" fill="rgb(221, 68, 119)" stroke="none" x="889.9330279422211" text-anchor="middle">MW = 0.2047</text><text class="force-bar-labels" font-size="12px" y="98" fill="rgb(102, 170, 0)" stroke="none" x="1023.1273733760581" text-anchor="middle">degree = 0.1565</text><text class="force-bar-labels" font-size="12px" y="98" fill="rgb(102, 170, 0)" stroke="none" x="1129.5433890010581" text-anchor="middle">pageRank = 0.2993</text></g><text x="632" y="28" text-anchor="middle" font-size="12" fill="#000" opacity="0.5">base value</text><line x1="974.2553030635581" x2="974.2553030635581" y1="50" y2="56" stroke="#F2F2F2" stroke-width="1" opacity="1"></line><text x="974.2553030635581" y="45" color="#fff" text-anchor="middle" font-weight="bold" stroke="#fff" stroke-width="6" opacity="1">3.73</text><text x="974.2553030635581" y="45" text-anchor="middle" font-weight="bold" fill="#000" opacity="1">3.73</text><text x="958.2553030635581" y="12" text-anchor="end" font-size="13" fill="rgb(221, 68, 119)" opacity="1">higher</text><text x="981.2553030635581" y="8" text-anchor="end" font-size="13" fill="rgb(221, 68, 119)" opacity="1">→</text><text x="974.2553030635581" y="28" text-anchor="middle" font-size="12" fill="#000" opacity="0.5">f(x)</text><text x="967.2553030635581" y="14" text-anchor="start" font-size="13" fill="rgb(102, 170, 0)" opacity="1">←</text><text x="990.2553030635581" y="12" text-anchor="start" font-size="13" fill="rgb(102, 170, 0)" opacity="1">lower</text><text x="10" y="20" text-anchor="middle" font-size="12" stroke="#fff" fill="#fff" stroke-width="4" stroke-linejoin="round"></text><text x="10" y="20" text-anchor="middle" font-size="12" fill="#0f0"></text><linearGradient id="linear-grad-0" x1="0%" y1="0%" x2="0%" y2="100%"><stop offset="0%" stop-color="rgb(221, 68, 119)" stop-opacity="0.6"></stop><stop offset="100%" stop-color="rgb(221, 68, 119)" stop-opacity="0"></stop></linearGradient><linearGradient id="linear-backgrad-0" x1="0%" y1="0%" x2="0%" y2="100%"><stop offset="0%" stop-color="rgb(221, 68, 119)" stop-opacity="0.5"></stop><stop offset="100%" stop-color="rgb(221, 68, 119)" stop-opacity="0"></stop></linearGradient><linearGradient id="linear-grad-1" x1="0%" y1="0%" x2="0%" y2="100%"><stop offset="0%" stop-color="rgb(102, 170, 0)" stop-opacity="0.6"></stop><stop offset="100%" stop-color="rgb(102, 170, 0)" stop-opacity="0"></stop></linearGradient><linearGradient id="linear-backgrad-1" x1="0%" y1="0%" x2="0%" y2="100%"><stop offset="0%" stop-color="rgb(102, 170, 0)" stop-opacity="0.5"></stop><stop offset="100%" stop-color="rgb(102, 170, 0)" stop-opacity="0"></stop></linearGradient></svg>