<svg data-reactroot="" style="user-select: none; display: block; font-family: arial; height: 150px; width: 1264px;"><style>
          .force-bar-axis path {
            fill: none;
            opacity: 0.4;
          }
          .force-bar-axis paths {
            display: none;
          }
          .tick line {
            stroke: #000;
            stroke-width: 1px;
            opacity: 0.4;
          }
          .tick text {
            fill: #000;s
            opacity: 0.5;
            font-size: 12px;
            padding: 0px;
          }</style><g><g transform="translate(0,50)" class="force-bar-axis" fill="none" font-size="10" font-family="sans-serif" text-anchor="middle"><path class="domain" stroke="#000" d="M0.5,0V0.5H1264.5V0"></path><g class="tick" opacity="1" transform="translate(55.078188114135735,0)"><line stroke="#000" y2="4" x1="0.5" x2="0.5"></line><text fill="#000" y="-14" x="0.5" dy="0.71em">-4.333</text></g><g class="tick" opacity="1" transform="translate(199.3086410856018,0)"><line stroke="#000" y2="4" x1="0.5" x2="0.5"></line><text fill="#000" y="-14" x="0.5" dy="0.71em">-3.333</text></g><g class="tick" opacity="1" transform="translate(343.53909405706787,0)"><line stroke="#000" y2="4" x1="0.5" x2="0.5"></line><text fill="#000" y="-14" x="0.5" dy="0.71em">-2.333</text></g><g class="tick" opacity="1" transform="translate(487.7695470285339,0)"><line stroke="#000" y2="4" x1="0.5" x2="0.5"></line><text fill="#000" y="-14" x="0.5" dy="0.71em">-1.333</text></g><g class="tick" opacity="1" transform="translate(632,0)"><line stroke="#000" y2="4" x1="0.5" x2="0.5"></line><text fill="#000" y="-14" x="0.5" dy="0.71em">-0.333</text></g><g class="tick" opacity="1" transform="translate(776.2304529714661,0)"><line stroke="#000" y2="4" x1="0.5" x2="0.5"></line><text fill="#000" y="-14" x="0.5" dy="0.71em">0.667</text></g><g class="tick" opacity="1" transform="translate(920.4609059429322,0)"><line stroke="#000" y2="4" x1="0.5" x2="0.5"></line><text fill="#000" y="-14" x="0.5" dy="0.71em">1.667</text></g><g class="tick" opacity="1" transform="translate(1064.6913589143983,0)"><line stroke="#000" y2="4" x1="0.5" x2="0.5"></line><text fill="#000" y="-14" x="0.5" dy="0.71em">2.667</text></g><g class="tick" opacity="1" transform="translate(1208.9218118858644,0)"><line stroke="#000" y2="4" x1="0.5" x2="0.5"></line><text fill="#000" y="-14" x="0.5" dy="0.71em">3.667</text></g></g><path class="force-bar-blocks" d="M554.7942908689972,56L595.0477896708294,56L599.0477896708294,64.5L595.0477896708294,73L554.7942908689972,73L558.7942908689972,64.5" fill="rgb(221, 68, 119)"></path><path class="force-bar-blocks" d="M595.0477896708294,56L646.6469647434658,56L650.6469647434658,64.5L646.6469647434658,73L595.0477896708294,73L599.0477896708294,64.5" fill="rgb(221, 68, 119)"></path><path class="force-bar-blocks" d="M646.6469647434659,56L698.3446420068202,56L702.3446420068202,64.5L698.3446420068202,73L646.6469647434659,73L650.6469647434659,64.5" fill="rgb(221, 68, 119)"></path><path class="force-bar-blocks" d="M698.3446420068202,56L753.3776603587305,56L757.3776603587305,64.5L753.3776603587305,73L698.3446420068202,73L702.3446420068202,64.5" fill="rgb(221, 68, 119)"></path><path class="force-bar-blocks" d="M753.3776603587305,56L853.380096695964,56L857.380096695964,64.5L853.380096695964,73L753.3776603587305,73L757.3776603587305,64.5" fill="rgb(221, 68, 119)"></path><path class="force-bar-blocks" d="M853.380096695964,56L976.1276242023306,56L976.1276242023306,64.5L976.1276242023306,73L853.380096695964,73L857.380096695964,64.5" fill="rgb(221, 68, 119)"></path><path class="force-bar-blocks" d="M976.1276242023305,56L1006.0618386149902,56L1002.0618386149902,64.5L1006.0618386149902,73L976.1276242023305,73L976.1276242023305,64.5" fill="rgb(102, 170, 0)"></path><path class="force-bar-blocks" d="M1006.0618386149903,56L1030.3905386207398,56L1026.3905386207398,64.5L1030.3905386207398,73L1006.0618386149903,73L1002.0618386149903,64.5" fill="rgb(102, 170, 0)"></path><path class="force-bar-blocks" d="M1030.3905386207398,56L1043.8591442845127,56L1039.8591442845127,64.5L1043.8591442845127,73L1030.3905386207398,73L1026.3905386207398,64.5" fill="rgb(102, 170, 0)"></path><path class="force-bar-blocks" d="M1043.8591442845127,56L1047.6876564000854,56L1043.6876564000854,64.5L1047.6876564000854,73L1043.8591442845127,73L1039.8591442845127,64.5" fill="rgb(102, 170, 0)"></path><path class="force-bar-blocks" d="M1047.6876564000854,56L1050.2788199068634,56L1046.2788199068634,64.5L1050.2788199068634,73L1047.6876564000854,73L1043.6876564000854,64.5" fill="rgb(102, 170, 0)"></path><path class="force-bar-blocks" d="M1050.2788199068636,56L1052.673939456505,56L1048.673939456505,64.5L1052.673939456505,73L1050.2788199068636,73L1046.2788199068636,64.5" fill="rgb(102, 170, 0)"></path><path class="force-bar-blocks" d="M1052.673939456505,56L1053.3333333333335,56L1049.3333333333335,64.5L1053.3333333333335,73L1052.673939456505,73L1048.673939456505,64.5" fill="rgb(102, 170, 0)"></path><path class="force-bar-labelBacking" stroke="none" opacity="0.2" d="M595.0477896708294,73L455.33712794596397,83L455.33712794596397,104L348.28244044596397,104L348.28244044596397,83L554.7942908689972,73" fill="url(#linear-backgrad-0)"></path><path class="force-bar-labelBacking" stroke="none" opacity="0.2" d="M646.6469647434659,73L530.803924820964,83L530.803924820964,104L455.33712794596397,104L455.33712794596397,83L595.0477896708294,73" fill="url(#linear-backgrad-0)"></path><path class="force-bar-labelBacking" stroke="none" opacity="0.2" d="M698.3446420068202,73L649.899627945964,83L649.899627945964,104L530.803924820964,104L530.803924820964,83L646.6469647434659,73" fill="url(#linear-backgrad-0)"></path><path class="force-bar-labelBacking" stroke="none" opacity="0.2" d="M753.3776603587305,73L738.292206070964,83L738.292206070964,104L649.899627945964,104L649.899627945964,83L698.3446420068202,73" fill="url(#linear-backgrad-0)"></path><path class="force-bar-labelBacking" stroke="none" opacity="0.2" d="M853.380096695964,73L853.380096695964,83L853.380096695964,104L738.292206070964,104L738.292206070964,83L753.3776603587305,73" fill="url(#linear-backgrad-0)"></path><path class="force-bar-labelBacking" stroke="none" opacity="0.2" d="M976.1276242023306,73L976.1276242023306,83L976.1276242023306,104L853.380096695964,104L853.380096695964,83L853.380096695964,73" fill="url(#linear-backgrad-0)"></path><path class="force-bar-labelBacking" stroke="none" opacity="0.2" d="M1006.0618386149903,73L1057.8287960773305,83L1057.8287960773305,104L976.1276242023305,104L976.1276242023305,83L976.1276242023305,73" fill="url(#linear-backgrad-1)"></path><path class="force-bar-labelBacking" stroke="none" opacity="0.2" d="M1030.3905386207398,73L1162.2467648273305,83L1162.2467648273305,104L1057.8287960773305,104L1057.8287960773305,83L1006.0618386149903,73" fill="url(#linear-backgrad-1)"></path><path class="force-bar-labelBacking" stroke="none" opacity="0.2" d="M1043.8591442845127,73L1245.2838742023305,83L1245.2838742023305,104L1162.2467648273305,104L1162.2467648273305,83L1030.3905386207398,73" fill="url(#linear-backgrad-1)"></path><rect class="force-bar-labelDividers" height="21px" width="1px" y="83" x="454.83712794596397" fill="url(#linear-grad-0)"></rect><rect class="force-bar-labelDividers" height="21px" width="1px" y="83" x="530.303924820964" fill="url(#linear-grad-0)"></rect><rect class="force-bar-labelDividers" height="21px" width="1px" y="83" x="649.399627945964" fill="url(#linear-grad-0)"></rect><rect class="force-bar-labelDividers" height="21px" width="1px" y="83" x="737.792206070964" fill="url(#linear-grad-0)"></rect><rect class="force-bar-labelDividers" height="21px" width="1px" y="83" x="852.880096695964" fill="url(#linear-grad-0)"></rect><rect class="force-bar-labelDividers" height="21px" width="1px" y="83" x="975.6276242023306" fill="url(#linear-grad-0)"></rect><rect class="force-bar-labelDividers" height="21px" width="1px" y="83" x="1057.3287960773305" fill="url(#linear-grad-1)"></rect><rect class="force-bar-labelDividers" height="21px" width="1px" y="83" x="1161.7467648273305" fill="url(#linear-grad-1)"></rect><line class="force-bar-labelLinks" y1="73" y2="83" stroke-opacity="0.5" stroke-width="1" x1="595.0477896708294" x2="455.33712794596397" stroke="rgb(221, 68, 119)"></line><line class="force-bar-labelLinks" y1="73" y2="83" stroke-opacity="0.5" stroke-width="1" x1="646.6469647434659" x2="530.803924820964" stroke="rgb(221, 68, 119)"></line><line class="force-bar-labelLinks" y1="73" y2="83" stroke-opacity="0.5" stroke-width="1" x1="698.3446420068202" x2="649.899627945964" stroke="rgb(221, 68, 119)"></line><line class="force-bar-labelLinks" y1="73" y2="83" stroke-opacity="0.5" stroke-width="1" x1="753.3776603587305" x2="738.292206070964" stroke="rgb(221, 68, 119)"></line><line class="force-bar-labelLinks" y1="73" y2="83" stroke-opacity="0.5" stroke-width="1" x1="853.380096695964" x2="853.380096695964" stroke="rgb(221, 68, 119)"></line><line class="force-bar-labelLinks" y1="73" y2="83" stroke-opacity="0.5" stroke-width="1" x1="976.1276242023306" x2="976.1276242023306" stroke="rgb(221, 68, 119)"></line><line class="force-bar-labelLinks" y1="73" y2="83" stroke-opacity="0.5" stroke-width="1" x1="1006.0618386149903" x2="1057.8287960773305" stroke="rgb(102, 170, 0)"></line><line class="force-bar-labelLinks" y1="73" y2="83" stroke-opacity="0.5" stroke-width="1" x1="1030.3905386207398" x2="1162.2467648273305" stroke="rgb(102, 170, 0)"></line><path class="force-bar-blockDividers" stroke-width="2" fill="none" d="M595.0477896708294,56L599.0477896708294,64.5L595.0477896708294,73" stroke="rgb(251, 234, 239)"></path><path class="force-bar-blockDividers" stroke-width="2" fill="none" d="M646.6469647434659,56L650.6469647434659,64.5L646.6469647434659,73" stroke="rgb(251, 234, 239)"></path><path class="force-bar-blockDividers" stroke-width="2" fill="none" d="M698.3446420068202,56L702.3446420068202,64.5L698.3446420068202,73" stroke="rgb(251, 234, 239)"></path><path class="force-bar-blockDividers" stroke-width="2" fill="none" d="M753.3776603587305,56L757.3776603587305,64.5L753.3776603587305,73" stroke="rgb(251, 234, 239)"></path><path class="force-bar-blockDividers" stroke-width="2" fill="none" d="M853.380096695964,56L857.380096695964,64.5L853.380096695964,73" stroke="rgb(251, 234, 239)"></path><path class="force-bar-blockDividers" stroke-width="2" fill="none" d="M976.1276242023306,56L980.1276242023306,64.5L976.1276242023306,73" stroke="#rgba(0,0,0,0)"></path><path class="force-bar-blockDividers" stroke-width="2" fill="none" d="M1006.0618386149903,56L1002.0618386149903,64.5L1006.0618386149903,73" stroke="rgb(171, 255, 46)"></path><path class="force-bar-blockDividers" stroke-width="2" fill="none" d="M1030.3905386207398,56L1026.3905386207398,64.5L1030.3905386207398,73" stroke="rgb(171, 255, 46)"></path><path class="force-bar-blockDividers" stroke-width="2" fill="none" d="M1043.8591442845127,56L1039.8591442845127,64.5L1043.8591442845127,73" stroke="rgb(171, 255, 46)"></path><path class="force-bar-blockDividers" stroke-width="2" fill="none" d="M1047.6876564000854,56L1043.6876564000854,64.5L1047.6876564000854,73" stroke="rgb(171, 255, 46)"></path><path class="force-bar-blockDividers" stroke-width="2" fill="none" d="M1050.2788199068636,56L1046.2788199068636,64.5L1050.2788199068636,73" stroke="rgb(171, 255, 46)"></path><path class="force-bar-blockDividers" stroke-width="2" fill="none" d="M1052.673939456505,56L1048.673939456505,64.5L1052.673939456505,73" stroke="rgb(171, 255, 46)"></path></g><g><text class="force-bar-labels" font-size="12px" y="98" fill="rgb(221, 68, 119)" stroke="none" x="401.80978419596397" text-anchor="middle">rawVmin = 0.4497</text><text class="force-bar-labels" font-size="12px" y="98" fill="rgb(221, 68, 119)" stroke="none" x="493.07052638346397" text-anchor="middle">maxATP = 1</text><text class="force-bar-labels" font-size="12px" y="98" fill="rgb(221, 68, 119)" stroke="none" x="590.351776383464" text-anchor="middle">between = 0.002538</text><text class="force-bar-labels" font-size="12px" y="98" fill="rgb(221, 68, 119)" stroke="none" x="694.095917008464" text-anchor="middle">close = 0.4059</text><text class="force-bar-labels" font-size="12px" y="98" fill="rgb(221, 68, 119)" stroke="none" x="795.836151383464" text-anchor="middle">pageRank = 0.1041</text><text class="force-bar-labels" font-size="12px" y="98" fill="rgb(221, 68, 119)" stroke="none" x="914.7538604491473" text-anchor="middle">rawVmax = 1.133e-8</text><text class="force-bar-labels" font-size="12px" y="98" fill="rgb(102, 170, 0)" stroke="none" x="1016.9782101398305" text-anchor="middle">MW = 0.2423</text><text class="force-bar-labels" font-size="12px" y="98" fill="rgb(102, 170, 0)" stroke="none" x="1110.0377804523305" text-anchor="middle">degree = 0.03704</text><text class="force-bar-labels" font-size="12px" y="98" fill="rgb(102, 170, 0)" stroke="none" x="1203.7653195148305" text-anchor="middle">growthAC = 1</text></g><text x="632" y="28" text-anchor="middle" font-size="12" fill="#000" opacity="0.5">base value</text><line x1="976.1276242023305" x2="976.1276242023305" y1="50" y2="56" stroke="#F2F2F2" stroke-width="1" opacity="1"></line><text x="976.1276242023305" y="45" color="#fff" text-anchor="middle" font-weight="bold" stroke="#fff" stroke-width="6" opacity="1">2.05</text><text x="976.1276242023305" y="45" text-anchor="middle" font-weight="bold" fill="#000" opacity="1">2.05</text><text x="960.1276242023305" y="12" text-anchor="end" font-size="13" fill="rgb(221, 68, 119)" opacity="1">higher</text><text x="983.1276242023305" y="8" text-anchor="end" font-size="13" fill="rgb(221, 68, 119)" opacity="1">→</text><text x="976.1276242023305" y="28" text-anchor="middle" font-size="12" fill="#000" opacity="0.5">f(x)</text><text x="969.1276242023305" y="14" text-anchor="start" font-size="13" fill="rgb(102, 170, 0)" opacity="1">←</text><text x="992.1276242023305" y="12" text-anchor="start" font-size="13" fill="rgb(102, 170, 0)" opacity="1">lower</text><text x="10" y="20" text-anchor="middle" font-size="12" stroke="#fff" fill="#fff" stroke-width="4" stroke-linejoin="round"></text><text x="10" y="20" text-anchor="middle" font-size="12" fill="#0f0"></text><linearGradient id="linear-grad-0" x1="0%" y1="0%" x2="0%" y2="100%"><stop offset="0%" stop-color="rgb(221, 68, 119)" stop-opacity="0.6"></stop><stop offset="100%" stop-color="rgb(221, 68, 119)" stop-opacity="0"></stop></linearGradient><linearGradient id="linear-backgrad-0" x1="0%" y1="0%" x2="0%" y2="100%"><stop offset="0%" stop-color="rgb(221, 68, 119)" stop-opacity="0.5"></stop><stop offset="100%" stop-color="rgb(221, 68, 119)" stop-opacity="0"></stop></linearGradient><linearGradient id="linear-grad-1" x1="0%" y1="0%" x2="0%" y2="100%"><stop offset="0%" stop-color="rgb(102, 170, 0)" stop-opacity="0.6"></stop><stop offset="100%" stop-color="rgb(102, 170, 0)" stop-opacity="0"></stop></linearGradient><linearGradient id="linear-backgrad-1" x1="0%" y1="0%" x2="0%" y2="100%"><stop offset="0%" stop-color="rgb(102, 170, 0)" stop-opacity="0.5"></stop><stop offset="100%" stop-color="rgb(102, 170, 0)" stop-opacity="0"></stop></linearGradient></svg>